<svg xmlns="http://www.w3.org/2000/svg" xmlns:xlink="http://www.w3.org/1999/xlink" style="fill-rule:nonzero;clip-rule:evenodd;stroke-linecap:round;stroke-linejoin:round" width="50" height="50" stroke-miterlimit="10" version="1.1" viewBox="0 0 50 50" xml:space="preserve"><g id="surface1"><path fill="#d6d2d2" fill-rule="nonzero" stroke="none" d="M20.5644 5.44374L20.5644 16.0958L17.0192 16.0958L17.0192 19.6905L20.5644 19.6905L20.5644 44.5563L24.1096 44.5563L24.1096 33.9042L25.8904 33.9042L25.8904 37.4494L27.6548 37.4494L27.6548 40.9946L29.4356 40.9946L29.4356 44.5563L32.9808 44.5563L32.9808 40.9616L31.2 40.9616L31.2 37.3999L29.4356 37.3999L29.4356 33.8547L27.6548 33.8547L27.6548 30.3425L29.4356 30.3425L29.4356 26.7973L31.2 26.7973L31.2 23.2027L27.6548 23.2027L27.6548 26.7479L25.8904 26.7479L25.8904 30.3095L24.1096 30.3095L24.1096 19.6905L27.6548 19.6905L27.6548 16.0958L24.1096 16.0958L24.1096 5.44374L20.5644 5.44374Z" opacity="1"/></g></svg>